<?xml version="1.0" standalone="no"?>
<!DOCTYPE svg PUBLIC "-//W3C//DTD SVG 20010904//EN"
 "http://www.w3.org/TR/2001/REC-SVG-20010904/DTD/svg10.dtd">
<svg version="1.0" xmlns="http://www.w3.org/2000/svg"
 width="512.000000pt" height="512.000000pt" viewBox="0 0 512.000000 512.000000"
 preserveAspectRatio="xMidYMid meet">
<metadata>
Created by potrace 1.11, written by Peter Selinger 2001-2013
</metadata>
<g transform="translate(0.000000,512.000000) scale(0.100000,-0.100000)"
fill="#000000" stroke="none">
<path d="M675 5011 c-5 -4 -82 -12 -142 -14 -13 -1 -23 -5 -23 -10 0 -4 -4 -6
-9 -3 -5 4 -31 2 -58 -4 -26 -5 -59 -12 -73 -14 -14 -3 -27 -5 -30 -6 -3 -1
-9 -3 -15 -4 -5 -1 -30 -6 -55 -11 -25 -5 -48 -8 -52 -7 -5 1 -8 -3 -8 -9 0
-6 -7 -9 -15 -5 -8 3 -15 1 -15 -4 0 -6 -3 -9 -8 -9 -15 3 -73 -14 -78 -22 -3
-5 -10 -7 -15 -4 -5 4 -9 1 -9 -4 0 -6 -7 -11 -15 -11 -31 0 -13 -29 37 -61
50 -31 151 -114 191 -155 34 -37 72 -82 97 -114 14 -18 30 -38 35 -44 6 -6 40
-54 75 -106 36 -52 68 -96 72 -98 5 -2 8 -10 8 -17 0 -8 10 -21 22 -29 12 -9
19 -16 14 -16 -9 0 41 -70 58 -82 6 -4 8 -8 4 -8 -12 0 29 -47 133 -152 125
-126 292 -235 389 -255 17 -3 30 -8 30 -12 0 -4 8 -7 18 -8 9 0 35 -3 57 -7
171 -29 365 47 450 177 15 24 20 25 40 14 44 -23 135 -104 196 -173 91 -105
192 -305 224 -444 20 -86 25 -110 30 -140 3 -19 8 -42 10 -50 2 -8 6 -42 10
-75 3 -33 8 -79 11 -101 3 -23 7 -86 8 -141 1 -55 5 -104 8 -109 3 -5 3 -18 1
-29 -5 -24 -5 -27 0 -88 2 -26 0 -50 -4 -53 -4 -2 -4 -17 0 -32 4 -15 4 -39 0
-55 -4 -15 -3 -27 2 -27 4 0 6 -6 4 -12 -11 -31 -13 -68 -4 -68 6 0 7 -6 2
-12 -4 -7 -8 -498 -8 -1092 l0 -1078 33 -29 c102 -90 432 -82 517 11 19 21 20
41 20 854 l0 833 55 84 c48 73 92 137 157 228 10 14 27 35 38 47 11 13 31 38
45 56 28 36 237 248 287 291 34 28 52 33 69 18 19 -18 139 -77 154 -76 8 1 23
-2 32 -7 34 -16 174 -10 245 11 17 5 34 7 37 3 3 -3 6 0 6 6 0 7 8 12 18 12
10 0 22 3 26 8 4 4 11 7 14 7 17 2 114 58 182 106 69 49 218 190 247 235 44
67 173 275 189 304 10 19 21 37 25 40 3 3 16 23 29 45 57 97 239 302 255 287
3 -3 5 -1 5 5 0 6 14 16 30 23 16 7 30 16 30 20 0 4 9 10 20 13 26 7 17 30
-18 47 -69 33 -174 67 -195 64 -9 -1 -17 1 -17 6 0 4 -10 8 -22 8 -13 0 -45 5
-72 11 -26 6 -52 8 -57 5 -5 -3 -9 -1 -9 5 0 5 -8 10 -17 10 -18 0 -51 4 -163
18 -75 10 -453 9 -515 -1 -64 -11 -210 -42 -210 -46 0 -1 -9 -4 -20 -6 -11 -3
-24 -6 -30 -8 -5 -1 -22 -6 -37 -11 -16 -4 -28 -12 -28 -17 0 -6 -7 -8 -15 -4
-8 3 -15 1 -15 -4 0 -6 -6 -10 -13 -10 -7 0 -29 -11 -50 -25 -20 -14 -37 -23
-37 -21 0 3 -14 -7 -31 -22 -120 -107 -185 -217 -203 -347 -2 -16 -5 -32 -6
-35 -1 -3 -2 -26 -1 -52 1 -46 -1 -49 -47 -79 -102 -70 -189 -142 -312 -262
-22 -20 -43 -37 -47 -37 -5 0 -9 26 -10 58 -5 137 -8 182 -13 182 -3 0 -6 19
-7 43 0 23 -4 60 -7 82 -3 22 -7 55 -8 73 -1 17 -4 32 -8 32 -3 0 -7 10 -7 23
-2 27 -11 92 -13 92 -1 0 -3 7 -5 15 -10 39 -16 66 -19 75 -2 6 -6 24 -11 40
-4 17 -12 36 -18 43 -5 6 -7 12 -4 12 5 0 -13 60 -30 100 -3 8 -7 17 -8 20 -1
3 -8 21 -15 40 -35 93 -165 319 -203 353 -11 9 -17 17 -14 17 10 0 -28 44
-113 130 -83 85 -183 170 -198 170 -6 0 -12 4 -14 8 -4 11 -97 72 -109 72 -5
0 -9 5 -9 11 0 5 -5 7 -10 4 -5 -3 -10 -2 -10 3 0 5 -24 20 -53 32 -30 13 -54
28 -55 34 -1 17 -8 38 -21 69 -6 16 -9 33 -5 38 3 5 1 9 -4 9 -5 0 -13 8 -16
18 -18 50 -92 137 -165 195 -33 27 -151 89 -151 80 0 -5 -4 -3 -8 2 -9 13
-155 61 -212 70 -8 1 -37 6 -65 10 -27 4 -59 10 -70 12 -26 7 -484 11 -490 4z"/>
</g>
</svg>
